# xmcd
#
# Track frame offsets:
#	150
#	16846
#	26666
#	41739
#	53034
#	67827
#	81479
#	97490
#	115023
#	125033
#	137570
#	159125
#	172818
#	188249
#	200980
#	219578
#	234954
#	247719
#	260505
#	274786
#	292983
#	307575
#	328481
#
# Disc length: 4628 seconds
#
# Revision: 1
# Processed by: cddbd v1.5.2PL0 Copyright (c) Steve Scherf et al.
# Submitted via: audiograbber 1.83.01
#
DISCID=45121217
DTITLE=Folk Music Songbook - Old Town School of  Folk Music Songbook Vol 1
DYEAR=2006
DGENRE=Blues
TTITLE0=Colby Maddox - Shady Grove
TTITLE1=Jan Langford - Take This Hammer
TTITLE2=Linda Smith - I Know You Rider
TTITLE3=Robbie Fulks - Brown's Ferry Blues
TTITLE4=Alice Peacock - Trouble in Mind
TTITLE5=Rita Ruby - Aragon Mill
TTITLE6=Chris Walz - Worried Man Blues
TTITLE7=Rick Sherry - Salty Dog
TTITLE8=Steven Rosen - Cripple Creek
TTITLE9=Janet Bean - Deep River Blues
TTITLE10=Rob Anderlik and Erin Flynn - Amazing Grace
TTITLE11=Pete Special - St James Infirmary
TTITLE12=Andrea Bunch and Aerin Tedesco - Don't Take This Road
TTITLE13=Bill Brickey - Down in the Valley
TTITLE14=Kathy Cowan - Old Dog Tray
TTITLE15=Dan Zanes and His Band - Drunken Sailor
TTITLE16=Ted and Marcia Johnson - Erie Canal
TTITLE17=Danny Barnes - Wabash Cannonball
TTITLE18=Elaine Moore - Just a Closer Walk with Thee
TTITLE19=John Stirratt - Wayfaring Stranger
TTITLE20=Mark Dvorak - Freight Train
TTITLE21=Steve Levitt - Midnight Special
TTITLE22=Weavermania - Goodnight Irene
EXTD=
EXTT0=
EXTT1=
EXTT2=
EXTT3=
EXTT4=
EXTT5=
EXTT6=
EXTT7=
EXTT8=
EXTT9=
EXTT10=
EXTT11=
EXTT12=
EXTT13=
EXTT14=
EXTT15=
EXTT16=
EXTT17=
EXTT18=
EXTT19=
EXTT20=
EXTT21=
EXTT22=
PLAYORDER=
